<?xml version="1.0" encoding="iso-8859-1"?>
<!-- Uploaded to: SVG Repo, www.svgrepo.com, Generator: SVG Repo Mixer Tools -->
<svg fill="#000000" height="800px" width="800px" version="1.1" id="Layer_1" xmlns="http://www.w3.org/2000/svg" xmlns:xlink="http://www.w3.org/1999/xlink" 
	 viewBox="0 0 512 512" xml:space="preserve">
<g>
	<g>
		<path d="M346.353,195.765h-49.379l36.9,46.125l-35.277,28.22L256,216.864l-42.597,53.246l-35.277-28.22l36.9-46.125h-49.379
			c-66.589,0-120.471,53.882-120.471,120.471v177.074c0,11.424,12.3,18.824,22.264,13.232c15.468-8.68,22.42-24.659,48.017-24.659
			c35.141,0,35.141,30.118,70.281,30.118c35.135,0,35.135-30.118,70.272-30.118c35.137,0,35.137,30.118,70.273,30.118
			c35.135,0,35.135-30.118,70.27-30.118c25.589,0,32.542,15.976,48.005,24.657c9.963,5.591,22.264-1.807,22.264-13.232V316.235
			C466.824,249.647,412.942,195.765,346.353,195.765z"/>
	</g>
</g>
<g>
	<g>
		<path d="M385.696,0h-69.46L256,60.235L195.765,0h-69.46c-10.279,0-17.536,10.07-14.286,19.82l43.589,130.768h200.784L399.98,19.82
			C403.232,10.07,395.973,0,385.696,0z"/>
	</g>
</g>
</svg>